:SAMPLES-PER-SECOND 30
:FULLY-SPECIFIED
:DEGREES
131
root  -40.6982 38.7417 0.341344 -21.0007 -80.3258 20.5577
RightUpLeg  -24.8067 -2.47969 -4.92712
RightLeg  25.4437 7.32799 3.65772
RightFoot  1.52462 0.213284 -1.64615
RightToes  -9.31324e-010 0 -3.6325e-017
Spine  23.3343 -0.723356 9.33242
Spine1  5.92115 3.28218 -9.98803
HEad  -25.419 -2.86981 -1.93352
LeftShoulder1  0.69485 1.42373 -27.7995
LeftArm  -2.03776 -10.7898 -44.048
LeftForeArm  56.2735 -0.430722 -9.90333
LeftHand  -0.537051 9.99794 -11.471
RightShoulder  0.226191 -2.75948 26.2669
RightArm  14.6583 21.2045 49.2778
RightForeArm  6.91309 20.9446 4.06347
RightHand  -0.507249 5.53376 -5.72533
LeftUpLeg  -19.7895 -2.11488 -2.19115
LeftLeg  36.1166 -10.0577 -7.45582
LeftFoot  -6.94598 -0.0953964 3.56032
LeftToes  8.61288e-010 -5.99147e-011 2.1039e-011
132
root  -41.3376 38.5247 0.210474 -18.5269 -78.7368 17.2774
RightUpLeg  -24.7166 -3.72316 -4.89375
RightLeg  29.574 7.12698 4.12975
RightFoot  -1.3412 0.0888067 -1.13969
RightToes  -9.31324e-010 0 -3.6325e-017
Spine  22.8695 0.258538 12.3777
Spine1  6.67063 5.17324 -10.4224
HEad  -23.1873 -9.97392 -3.15108
LeftShoulder1  0.0650188 3.35564 -32.0159
LeftArm  4.75064 -1.56789 -37.6919
LeftForeArm  53.627 -5.42175 -12.2543
LeftHand  -0.61705 10.0974 -12.2423
RightShoulder  -0.555858 -4.98645 31.0785
RightArm  -7.1023 14.6248 44.7578
RightForeArm  1.74502 5.90227 0.27156
RightHand  -0.713708 6.07561 -7.42959
LeftUpLeg  -20.9026 -3.16899 -1.67613
LeftLeg  41.3503 -10.4323 -9.31944
LeftFoot  -6.75483 -0.0208692 1.5975
LeftToes  8.61288e-010 -5.99147e-011 2.1039e-011
133
root  -41.8491 38.62 0.0952379 -16.5392 -76.7215 15.6393
RightUpLeg  -24.1182 -6.79068 -4.88089
RightLeg  30.0627 7.86427 4.65335
RightFoot  -2.34028 0.121106 -1.73352
RightToes  -9.31324e-010 0 -3.6325e-017
Spine  21.468 1.60954 14.6633
Spine1  7.69764 6.70564 -9.47292
HEad  -21.9947 -16.4994 -3.92891
LeftShoulder1  -0.0747155 3.69925 -32.1068
LeftArm  10.7224 8.27714 -33.839
LeftForeArm  41.0411 -8.39882 -12.1755
LeftHand  -0.105683 7.52294 -4.08452
RightShoulder  -0.957803 -5.9302 32.9439
RightArm  -14.9408 6.05367 41.4893
RightForeArm  -24.0634 -2.19759 -3.40006
RightHand  -1.1244 9.46215 -9.17391
LeftUpLeg  -21.9367 -4.25314 -1.48084
LeftLeg  43.2967 -11.3248 -10.8421
LeftFoot  -4.70902 0.0481385 -0.307469
LeftToes  8.61288e-010 -5.99147e-011 2.1039e-011
134
root  -42.2121 38.8593 -0.00107248 -13.6919 -73.8836 13.0118
RightUpLeg  -22.604 -9.39779 -5.02586
RightLeg  28.7539 7.68619 4.31748
RightFoot  -2.50905 0.115324 -1.71299
RightToes  -9.31324e-010 0 -3.6325e-017
Spine  20.8158 1.84224 15.7715
Spine1  7.21982 6.625 -8.12317
HEad  -22.3542 -19.8894 -3.16525
LeftShoulder1  -0.275103 4.229 -31.8981
LeftArm  11.2087 18.5676 -29.4178
LeftForeArm  32.8316 -10.1473 -11.0944
LeftHand  -0.0416102 6.85763 -0.502108
RightShoulder  -1.10799 -6.28285 33.2428
RightArm  -12.1915 -2.57463 39.1026
RightForeArm  -39.4407 -4.83886 -2.08579
RightHand  -0.7588 6.82547 -7.47337
LeftUpLeg  -22.3387 -6.02955 -1.32543
LeftLeg  43.5093 -12.2826 -11.8435
LeftFoot  -2.17468 0.179432 -2.08237
LeftToes  8.61288e-010 -5.99147e-011 2.1039e-011
135
root  -42.5141 39.2113 -0.0795362 -13.1898 -71.9714 13.0936
RightUpLeg  -20.9938 -10.0976 -5.56315
RightLeg  26.0253 6.99466 3.46579
RightFoot  -1.9851 0.0617844 -0.922644
RightToes  -9.31324e-010 0 -3.6325e-017
Spine  19.8834 1.72185 15.455
Spine1  6.67727 5.97627 -7.08552
HEad  -22.6415 -19.8391 -2.71498
LeftShoulder1  -0.49443 4.83263 -31.0448
LeftArm  10.2439 29.6808 -25.6759
LeftForeArm  24.6008 -13.4315 -8.67832
LeftHand  -0.00674793 7.37507 1.83528
RightShoulder  -1.29322 -6.68278 34.1162
RightArm  -7.30234 -9.48156 36.3387
RightForeArm  -33.8507 -3.78156 -0.534689
RightHand  -0.519412 5.56574 -5.80878
LeftUpLeg  -21.638 -6.27871 -1.59337
LeftLeg  41.2483 -13.1171 -11.6865
LeftFoot  -0.981324 0.398059 -4.3696
LeftToes  8.61288e-010 -5.99147e-011 2.1039e-011
136
root  -42.7307 39.5817 -0.135214 -13.3359 -70.6018 14.0816
RightUpLeg  -19.68 -11.273 -6.18233
RightLeg  22.9722 7.32854 3.19668
RightFoot  -0.788498 0.0203018 -0.282478
RightToes  -9.31324e-010 0 -3.6325e-017
Spine  18.0981 1.76214 14.1208
Spine1  7.23451 5.02334 -4.79365
HEad  -22.5448 -19.4958 -2.926
LeftShoulder1  -0.609079 5.16068 -30.6041
LeftArm  4.05075 38.4411 -23.7494
LeftForeArm  20.7392 -13.0017 -7.12598
LeftHand  -0.00567129 8.93775 1.29995
RightShoulder  -1.22243 -6.55653 33.4701
RightArm  -2.83414 -16.0879 34.8198
RightForeArm  -17.6013 2.55777 0.531616
RightHand  -0.759424 8.64508 -6.62887
LeftUpLeg  -20.1862 -4.78901 -2.10082
LeftLeg  37.4976 -13.7717 -10.7709
LeftFoot  -1.6497 0.696527 -8.09039
LeftToes  8.61288e-010 -5.99147e-011 2.1039e-011
137
root  -42.8703 39.905 -0.176441 -14.3326 -69.4845 16.0015
RightUpLeg  -18.5624 -12.3898 -7.13958
RightLeg  19.8993 7.68814 3.09369
RightFoot  0.39364 -0.0312039 0.336998
RightToes  -9.31324e-010 0 -3.6325e-017
Spine  16.4049 1.76102 12.2655
Spine1  7.41396 4.03144 -2.67905
HEad  -21.4986 -18.9937 -4.09426
LeftShoulder1  -0.585583 5.1185 -30.0743
LeftArm  -1.40835 44.6762 -22.8222
LeftForeArm  17.1583 -9.65235 -6.08838
LeftHand  0.0322383 10.3075 2.02522
RightShoulder  -1.16687 -6.48585 32.5754
RightArm  5.55485 -20.1837 32.8053
RightForeArm  -0.690121 9.22774 2.99888
RightHand  -0.553129 7.10166 -5.49251
LeftUpLeg  -18.7149 -2.71736 -3.09835
LeftLeg  34.5909 -13.1313 -9.23272
LeftFoot  -2.99139 0.656092 -8.70655
LeftToes  8.61288e-010 -5.99147e-011 2.1039e-011
138
root  -42.9202 40.1225 -0.186236 -15.2883 -69.0447 16.9539
RightUpLeg  -16.9038 -13.4142 -7.93326
RightLeg  17.2573 8.65964 3.53618
RightFoot  1.39394 -0.0572017 0.594593
RightToes  -9.31324e-010 0 -3.6325e-017
Spine  15.5622 1.60881 11.2338
Spine1  7.59756 3.43908 -1.56348
HEad  -20.0784 -17.7446 -5.27771
LeftShoulder1  -0.421371 4.67817 -29.7917
LeftArm  -1.43935 49.1991 -21.5428
LeftForeArm  15.205 -7.58213 -5.40526
LeftHand  0.08476 10.7111 3.04192
RightShoulder  -1.13415 -6.46682 31.7234
RightArm  14.2222 -22.2425 30.8325
RightForeArm  7.38014 14.0135 4.72042
RightHand  -0.554177 7.17093 -5.48775
LeftUpLeg  -16.5292 -0.642162 -3.39252
LeftLeg  33.3623 -12.2524 -8.22729
LeftFoot  -5.11346 0.483654 -8.3254
LeftToes  8.61288e-010 -5.99147e-011 2.1039e-011
139
root  -42.9103 40.2225 -0.170187 -15.8254 -69.399 17.7393
RightUpLeg  -16.2366 -13.5173 -8.35069
RightLeg  15.4363 9.4461 3.89612
RightFoot  1.97646 -0.149064 1.39409
RightToes  -9.31324e-010 0 -3.6325e-017
Spine  14.591 1.56394 10.5376
Spine1  7.71981 3.06618 -0.781004
HEad  -19.9678 -16.6612 -5.65726
LeftShoulder1  -0.317074 4.36813 -30.5218
LeftArm  0.417147 53.0564 -19.4581
LeftForeArm  17.8055 -8.56064 -5.43827
LeftHand  0.0013261 12.4333 1.11869
RightShoulder  -1.10481 -6.44539 31.0127
RightArm  22.8573 -21.9879 29.0554
RightForeArm  8.12085 16.7637 5.30492
RightHand  -0.391821 7.82367 -3.76449
LeftUpLeg  -14.6766 0.419468 -3.20006
LeftLeg  32.927 -10.7076 -7.0527
LeftFoot  -6.35783 0.389931 -8.07464
LeftToes  8.61288e-010 -5.99147e-011 2.1039e-011
140
root  -42.847 40.2567 -0.142547 -15.791 -70.028 17.7987
RightUpLeg  -15.9439 -13.2115 -8.28408
RightLeg  14.2498 9.97595 4.03528
RightFoot  2.65522 -0.17552 1.5778
RightToes  -9.31324e-010 0 -3.6325e-017
Spine  13.5765 1.3784 10.5963
Spine1  8.34466 2.88971 -0.9314
HEad  -20.5964 -14.5945 -5.72679
LeftShoulder1  -0.337419 4.42793 -30.3217
LeftArm  1.95189 54.7826 -19.4591
LeftForeArm  23.6018 -9.04106 -6
LeftHand  -0.120791 12.8444 -0.780365
RightShoulder  -1.18171 -6.63302 31.2309
RightArm  29.2947 -19.1716 27.7305
RightForeArm  7.33985 18.1101 5.49878
RightHand  -0.080214 6.54432 -1.1353
LeftUpLeg  -12.7746 0.557497 -2.58389
LeftLeg  33.0508 -9.51828 -6.27459
LeftFoot  -7.11607 0.320504 -7.52589
LeftToes  8.61288e-010 -5.99147e-011 2.1039e-011
141
root  -42.6924 40.2234 -0.108862 -15.2 -70.5227 17.0296
RightUpLeg  -15.9267 -13.0504 -8.00519
RightLeg  13.9008 10.1982 4.18833
RightFoot  3.09087 -0.212229 1.84179
RightToes  -9.31324e-010 0 -3.6325e-017
Spine  13.0758 1.09637 10.3587
Spine1  8.39006 2.34952 -0.0348307
HEad  -19.7275 -13.3909 -6.55652
LeftShoulder1  -0.437103 4.66757 -31.4444
LeftArm  2.42756 54.5588 -20.6152
LeftForeArm  29.402 -9.40851 -6.48497
LeftHand  -0.180103 11.2561 -2.32935
RightShoulder  -1.09059 -6.43799 30.6331
RightArm  31.5203 -15.2396 27.7534
RightForeArm  8.03115 17.6538 5.90874
RightHand  0.0562647 4.94024 0.336249
LeftUpLeg  -11.0412 -0.480393 -1.69751
LeftLeg  33.9136 -9.0096 -6.1264
LeftFoot  -7.97999 0.255586 -7.06929
LeftToes  8.61288e-010 -5.99147e-011 2.1039e-011
142
root  -42.4485 40.2041 -0.0660982 -15.434 -71.2088 17.1335
RightUpLeg  -16.084 -12.8112 -7.89826
RightLeg  13.4251 10.8588 4.23159
RightFoot  3.85694 -0.258185 2.13199
RightToes  -9.31324e-010 0 -3.6325e-017
Spine  12.6609 1.03202 10.5786
Spine1  8.34012 2.35799 -0.211641
HEad  -18.7966 -12.5531 -6.33597
LeftShoulder1  -0.476765 4.75333 -31.9968
LeftArm  0.281789 52.0708 -24.3003
LeftForeArm  34.4047 -9.22999 -6.55772
LeftHand  -0.222961 9.58276 -4.40385
RightShoulder  -1.1125 -6.4963 30.6426
RightArm  28.1045 -11.0193 28.3759
RightForeArm  10.283 16.051 6.29724
RightHand  0.124726 3.35091 1.3963
LeftUpLeg  -9.38519 -1.87183 -1.25489
LeftLeg  34.5403 -8.59287 -5.97043
LeftFoot  -8.74753 0.206861 -6.8605
LeftToes  8.61288e-010 -5.99147e-011 2.1039e-011
143
root  -42.1269 40.157 -0.0174785 -16.1572 -72.1399 17.4659
RightUpLeg  -16.2124 -12.6262 -7.77276
RightLeg  13.111 11.6667 4.33114
RightFoot  4.58927 -0.311733 2.45169
RightToes  -9.31324e-010 0 -3.6325e-017
Spine  12.4374 1.08488 11.0636
Spine1  8.44492 2.64407 -0.778178
HEad  -18.0542 -11.5799 -6.58715
LeftShoulder1  -0.588861 5.0272 -32.5178
LeftArm  -2.8214 46.8969 -28.6941
LeftForeArm  36.8312 -8.42047 -6.52569
LeftHand  -0.2177 9.33303 -4.71094
RightShoulder  -1.13569 -6.5522 30.7259
RightArm  20.3864 -7.49263 29.8855
RightForeArm  11.7369 14.4027 5.99077
RightHand  0.118004 3.3169 1.32348
LeftUpLeg  -7.61946 -3.25873 -0.991364
LeftLeg  35.1286 -8.19916 -5.81344
LeftFoot  -9.86751 0.154932 -7.43553
LeftToes  8.61288e-010 -5.99147e-011 2.1039e-011
144
root  -41.7087 40.0837 0.0339854 -15.7211 -72.4336 16.644
RightUpLeg  -16.4642 -12.6 -7.64885
RightLeg  12.9283 11.8769 4.43562
RightFoot  5.42728 -0.359033 2.68747
RightToes  -9.31324e-010 0 -3.6325e-017
Spine  12.1917 0.917097 11.8909
Spine1  8.16603 2.75571 -1.58289
HEad  -17.1392 -10.2852 -6.88802
LeftShoulder1  -0.658556 5.19598 -32.7501
LeftArm  -4.98021 40.4831 -32.8277
LeftForeArm  37.347 -8.32859 -6.56637
LeftHand  -0.211783 8.47228 -5.76177
RightShoulder  -1.15168 -6.59358 30.7475
RightArm  13.5425 -5.33097 31.8127
RightForeArm  9.25818 14.9716 4.84806
RightHand  -0.0277954 3.94036 -0.544437
LeftUpLeg  -6.52114 -4.7203 -0.567279
LeftLeg  36.1695 -8.12772 -5.987
LeftFoot  -10.9205 0.0923693 -7.18263
LeftToes  8.61288e-010 -5.99147e-011 2.1039e-011
145
root  -41.2004 39.9718 0.0836507 -15.3446 -72.4446 15.9333
RightUpLeg  -16.9271 -12.6143 -7.66824
RightLeg  12.8797 11.848 4.45688
RightFoot  6.21466 -0.410927 2.93581
RightToes  -9.31324e-010 0 -3.6325e-017
Spine  11.8577 0.842548 12.2685
Spine1  7.79143 2.77023 -1.84714
HEad  -16.3515 -9.86733 -6.62694
LeftShoulder1  -0.753017 5.39194 -33.7166
LeftArm  -5.83343 32.492 -35.9036
LeftForeArm  37.042 -8.42061 -6.86218
LeftHand  -0.283018 9.16612 -6.78636
RightShoulder  -1.07206 -6.41191 30.3188
RightArm  8.03809 -4.43737 34.0371
RightForeArm  3.00667 18.3417 4.22903
RightHand  -0.32174 4.59 -4.0659
LeftUpLeg  -5.74703 -5.81871 -0.306842
LeftLeg  36.9977 -7.65666 -5.79941
LeftFoot  -11.4869 0.0594119 -6.41952
LeftToes  8.61288e-010 -5.99147e-011 2.1039e-011
